<?xml version="1.0" standalone="no"?>
<!DOCTYPE svg PUBLIC "-//W3C//DTD SVG 20010904//EN"
 "http://www.w3.org/TR/2001/REC-SVG-20010904/DTD/svg10.dtd">
<svg version="1.0" xmlns="http://www.w3.org/2000/svg"
 width="200.000000pt" height="200.000000pt" viewBox="0 0 200.000000 200.000000"
 preserveAspectRatio="xMidYMid meet">

<g transform="translate(0.000000,200.000000) scale(0.100000,-0.100000)"
fill="#000000" stroke="none">
<path d="M835 1984 c-369 -65 -664 -317 -784 -671 -27 -80 -51 -229 -51 -314
0 -75 23 -220 46 -294 50 -159 170 -347 287 -448 392 -340 945 -340 1334 0
117 102 237 290 287 448 110 348 12 740 -248 1001 -228 227 -559 333 -871 278z
m313 -61 c29 -8 76 -26 105 -40 l52 -26 -40 -14 c-149 -54 -381 -54 -530 0
l-40 14 69 33 c117 55 264 68 384 33z m-720 -660 c117 -104 267 -251 261 -257
-3 -3 -74 29 -159 72 -129 65 -155 81 -166 108 -14 33 -28 144 -18 144 3 0 40
-30 82 -67z m1227 10 c-13 -103 -20 -112 -146 -175 -216 -108 -202 -102 -190
-80 9 18 65 71 275 264 28 26 55 48 60 48 4 0 5 -26 1 -57z m-1430 -473 c131
-67 181 -113 234 -217 56 -112 204 -323 217 -310 2 2 -6 23 -18 48 -65 135
-13 323 116 420 123 93 329 93 453 0 128 -97 180 -286 115 -420 -12 -25 -20
-46 -18 -48 13 -13 154 189 212 303 56 110 108 158 244 227 62 31 117 54 122
49 19 -19 7 -269 -13 -256 -5 3 -6 -2 -3 -10 3 -9 -4 -27 -15 -42 -12 -15 -21
-31 -21 -36 0 -24 -161 -223 -180 -223 -3 0 -21 -12 -41 -28 -20 -15 -41 -27
-48 -27 -7 0 -9 -5 -5 -12 4 -6 3 -8 -4 -4 -6 3 -27 -5 -47 -19 -21 -13 -53
-29 -72 -34 -19 -5 -52 -28 -75 -50 -44 -45 -90 -62 -227 -86 -106 -19 -196
-19 -302 0 -134 23 -188 43 -223 80 -17 19 -51 43 -76 55 -25 11 -58 29 -75
39 -16 11 -38 20 -47 20 -10 1 -18 6 -18 11 0 6 -11 15 -25 20 -14 5 -25 14
-25 19 0 5 -9 13 -20 16 -18 6 -42 28 -105 95 -40 44 -115 170 -115 195 0 9
-4 13 -10 10 -6 -3 -7 1 -4 9 3 9 2 16 -2 16 -10 0 -14 34 -15 134 0 74 7 119
19 114 5 -2 57 -28 117 -58z"/>
</g>
</svg>
